<?xml version="1.0" standalone="no"?>
<!DOCTYPE svg PUBLIC "-//W3C//DTD SVG 20010904//EN"
 "http://www.w3.org/TR/2001/REC-SVG-20010904/DTD/svg10.dtd">
<svg version="1.0" xmlns="http://www.w3.org/2000/svg"
 width="300.000000pt" height="300.000000pt" viewBox="0 0 300.000000 300.000000"
 preserveAspectRatio="xMidYMid meet">
<metadata>
Created by potrace 1.10, written by Peter Selinger 2001-2011
</metadata>
<g transform="translate(0.000000,300.000000) scale(0.100000,-0.100000)"
fill="#6775de" stroke="none">
<path d="M1400 2993 c-205 -21 -406 -76 -558 -152 -515 -259 -836 -774 -836
-1341 0 -566 322 -1083 834 -1340 46 -23 136 -59 200 -80 778 -256 1623 175
1879 957 252 766 -153 1597 -909 1868 -191 69 -444 105 -610 88z m190 -813
c289 -27 587 -105 809 -210 120 -58 165 -89 186 -130 18 -35 19 -96 2 -130
-14 -29 -89 -70 -128 -70 -15 0 -87 29 -160 64 -74 35 -163 74 -198 86 -96 32
-288 78 -374 90 -42 6 -86 13 -99 16 -74 14 -370 23 -514 14 -87 -6 -166 -12
-174 -14 -8 -1 -37 -6 -65 -10 -27 -5 -94 -19 -147 -32 -117 -29 -153 -30
-195 -4 -64 39 -85 105 -55 174 25 55 51 73 144 96 268 69 633 91 968 60z
m-70 -511 c246 -28 457 -89 678 -194 162 -78 192 -105 192 -170 0 -40 -5 -52
-34 -81 -51 -51 -85 -47 -231 26 -173 87 -335 139 -540 175 -124 22 -405 30
-537 16 -108 -12 -263 -42 -313 -61 -37 -14 -62 -13 -101 6 -69 33 -84 127
-29 184 45 47 271 96 525 113 75 5 289 -2 390 -14z m50 -495 c176 -28 326 -76
478 -152 130 -66 157 -89 157 -140 0 -29 -7 -48 -24 -66 -42 -45 -69 -43 -174
14 -228 122 -438 171 -739 171 -178 0 -192 -1 -405 -38 -169 -29 -195 -26
-226 26 -23 40 -21 64 9 100 32 39 64 48 309 86 164 26 448 26 615 -1z"/>
</g>
</svg>
